<?xml version="1.0" standalone="no"?>
<!DOCTYPE svg PUBLIC "-//W3C//DTD SVG 20010904//EN"
 "http://www.w3.org/TR/2001/REC-SVG-20010904/DTD/svg10.dtd">
<svg version="1.0" xmlns="http://www.w3.org/2000/svg"
 width="520.000000pt" height="520.000000pt" viewBox="0 0 520.000000 520.000000"
 preserveAspectRatio="xMidYMid meet">
<metadata>
Created by potrace 1.14, written by Peter Selinger 2001-2017
</metadata>
<g transform="translate(0.000000,520.000000) scale(0.100000,-0.100000)"
fill="#000000" stroke="none">
<path d="M0 2600 l0 -2600 2600 0 2600 0 0 2600 0 2600 -2600 0 -2600 0 0
-2600z m3587 1733 c-21 -42 -60 -164 -54 -170 11 -10 27 8 35 40 9 35 36 48
46 21 6 -17 -11 -92 -26 -108 -13 -16 -9 -63 5 -69 8 -3 20 -1 27 3 13 8 19 7
78 -24 17 -10 36 -15 41 -12 11 7 77 -19 86 -34 3 -5 15 -10 26 -10 10 0 28
-9 38 -19 11 -11 42 -26 68 -34 53 -16 111 -47 160 -86 68 -55 91 -71 119 -83
47 -21 94 -64 182 -163 30 -33 40 -51 32 -59 -7 -7 -15 -4 -25 10 -14 18 -15
17 -9 -11 4 -16 13 -37 20 -46 8 -8 14 -20 14 -26 0 -6 7 -16 15 -23 8 -7 15
-20 15 -30 0 -9 15 -37 34 -61 39 -51 46 -78 53 -213 5 -104 -3 -151 -38 -218
-21 -42 -23 -48 -10 -48 5 0 11 10 14 22 4 12 9 19 12 16 7 -7 -30 -152 -45
-180 -6 -10 -10 -33 -10 -51 0 -28 -45 -104 -107 -182 -5 -5 -14 -23 -21 -40
-16 -35 -64 -109 -75 -113 -4 -2 -5 -8 -2 -12 3 -5 -8 -17 -25 -26 -16 -10
-30 -23 -30 -30 0 -14 -56 -64 -73 -64 -7 0 -42 -27 -76 -60 -35 -33 -66 -60
-69 -60 -3 0 -23 -16 -43 -36 -46 -45 -95 -73 -236 -134 -17 -8 -30 -17 -27
-21 2 -4 -6 -19 -17 -34 -15 -18 -25 -23 -32 -16 -7 7 -6 15 3 27 12 14 11 16
-10 12 -19 -2 -25 -9 -25 -30 0 -36 -12 -45 -30 -22 -14 18 -14 18 -15 -3 0
-25 -26 -27 -53 -5 -10 9 -22 10 -41 2 -33 -12 -34 -30 -1 -30 14 0 25 -4 25
-10 0 -15 -39 -32 -60 -25 -14 4 -20 2 -20 -9 0 -20 -17 -29 -38 -20 -34 15
-96 11 -122 -8 -23 -18 -25 -18 -37 -2 -7 10 -16 15 -19 11 -4 -4 -2 -13 5
-20 23 -29 -48 -50 -106 -32 -18 6 -25 2 -32 -18 -15 -40 -81 -54 -81 -17 0
22 -15 27 -26 9 -4 -7 1 -16 10 -21 32 -18 18 -38 -27 -38 -23 0 -57 -4 -75
-10 -28 -7 -33 -7 -28 5 3 8 1 17 -4 20 -6 4 -10 -3 -10 -15 0 -13 -9 -24 -26
-30 -14 -6 -22 -15 -19 -21 4 -6 -3 -21 -16 -35 -17 -19 -33 -24 -69 -24 -26
0 -55 -7 -69 -16 -15 -11 -34 -15 -59 -11 -27 5 -50 -1 -98 -24 -35 -16 -80
-30 -100 -31 -26 -1 -38 -6 -42 -20 -2 -11 -13 -18 -28 -18 -13 0 -24 -5 -24
-11 0 -5 -18 -37 -41 -70 -22 -33 -46 -77 -54 -98 -18 -53 -53 -119 -86 -166
-16 -22 -51 -96 -79 -164 -27 -68 -61 -138 -75 -157 -14 -18 -25 -39 -25 -47
0 -8 -7 -20 -16 -28 -8 -7 -29 -42 -46 -78 -28 -61 -47 -86 -56 -76 -8 7 18
69 44 106 14 21 35 79 50 140 14 57 33 115 43 129 16 22 28 51 77 183 9 23 11
44 6 53 -7 12 -14 6 -36 -26 -15 -23 -30 -39 -33 -36 -3 3 1 16 9 28 11 17 12
33 6 62 -7 35 -4 47 33 113 22 41 38 78 34 81 -8 8 -39 -30 -66 -80 -10 -21
-24 -38 -29 -38 -13 0 -13 6 6 41 8 17 13 36 10 42 -2 7 -5 4 -5 -5 -1 -10 -7
-18 -15 -18 -13 0 -39 -54 -30 -63 2 -2 -5 -12 -16 -22 -11 -10 -20 -24 -20
-31 0 -7 -14 -24 -32 -39 -29 -25 -31 -28 -15 -40 23 -17 22 -24 -17 -73 -19
-24 -36 -48 -38 -54 -3 -7 -9 -8 -16 -4 -8 5 -8 14 0 34 6 15 12 40 14 56 2
16 12 41 21 55 10 14 26 44 36 66 10 22 23 48 28 57 14 26 11 45 -3 25 -10
-12 -17 -14 -28 -7 -13 9 -13 12 2 23 9 8 17 22 16 33 -1 10 2 34 6 51 9 40
-1 42 -70 11 -27 -12 -58 -22 -69 -22 -11 -1 -26 -5 -33 -10 -7 -4 -56 -9
-107 -11 -52 -2 -99 -6 -104 -9 -19 -12 -77 -19 -144 -17 -38 1 -85 -4 -105
-10 -21 -7 -49 -12 -65 -11 -17 2 -30 -4 -33 -13 -5 -12 -21 -15 -63 -14 -31
0 -110 -6 -176 -14 -102 -12 -124 -12 -147 -1 -25 13 -80 11 -143 -6 -5 -1
-28 -2 -50 -1 -30 1 -36 4 -25 11 8 5 25 10 38 10 12 0 22 4 22 9 0 17 -40 19
-91 6 -28 -8 -57 -11 -65 -8 -8 3 -21 0 -29 -7 -12 -10 -22 -10 -39 -2 -16 7
-27 7 -33 1 -6 -6 -46 -13 -89 -16 -61 -4 -76 -3 -68 7 6 6 80 20 164 31 84
10 155 21 158 24 3 3 -1 5 -8 5 -9 0 -11 3 -4 10 9 9 73 21 224 41 84 11 123
22 195 54 28 12 76 30 107 39 32 9 58 19 58 23 0 9 -110 -4 -123 -15 -7 -5
-34 -12 -62 -15 -27 -3 -51 -10 -53 -16 -2 -6 -8 -11 -14 -11 -6 0 -4 8 5 18
10 10 17 23 17 28 0 6 39 20 87 33 71 18 173 56 173 64 0 1 -21 1 -47 -1 -45
-3 -47 -2 -29 13 11 8 28 15 37 15 10 0 21 5 24 10 8 13 -31 13 -57 -1 -23
-12 -299 -28 -291 -16 2 4 22 7 43 7 21 0 41 4 45 9 3 6 27 13 53 16 26 3 82
19 124 36 42 16 85 29 95 29 10 1 29 7 43 16 23 14 21 14 -40 8 -36 -3 -73
-11 -84 -16 -12 -6 -22 -6 -28 0 -11 11 -7 12 72 32 25 6 55 18 67 25 11 8 48
19 82 24 37 6 69 18 83 30 12 12 28 21 35 21 7 0 20 11 29 25 9 14 20 22 26
19 5 -3 14 -1 21 5 7 5 44 15 82 21 79 12 144 30 225 59 30 11 73 20 96 21 32
0 43 5 53 23 7 12 30 30 52 40 22 10 39 24 39 33 0 12 6 15 25 10 18 -5 27 -1
35 13 5 11 17 26 25 34 20 21 65 110 58 117 -6 5 -103 -100 -103 -112 0 -14
-21 -8 -27 7 -3 9 3 25 13 36 15 17 16 22 4 29 -12 7 -12 12 3 28 9 10 17 26
17 35 0 8 8 18 18 21 9 4 33 32 52 63 19 31 41 62 48 70 7 7 9 13 4 13 -17 0
-76 -68 -112 -130 -5 -8 -12 -11 -16 -7 -10 9 35 105 53 111 8 3 12 17 11 34
-2 29 7 52 22 52 5 0 7 -7 4 -15 -4 -8 -4 -15 -1 -15 3 0 18 39 32 86 36 117
104 249 129 249 11 0 21 7 23 15 4 13 3 13 -6 0 -24 -34 -9 26 22 90 23 46 37
65 50 64 11 -1 17 4 15 15 -2 17 17 57 37 77 6 6 17 30 25 53 7 23 28 57 46
76 18 19 35 49 39 67 4 18 18 47 31 65 13 17 24 41 24 52 0 11 4 23 10 26 5 3
40 66 76 138 36 73 72 137 80 143 13 10 11 15 -12 33 -30 23 -40 26 -49 11 -4
-6 -11 -7 -17 -4 -6 4 -48 11 -92 15 -64 6 -86 4 -104 -8 -15 -9 -28 -11 -35
-5 -14 10 -316 10 -333 -1 -15 -9 -75 3 -69 13 3 4 21 11 41 15 36 6 42 8 99
37 17 9 47 21 68 28 22 7 51 18 65 26 15 8 35 14 45 14 9 0 17 5 17 10 0 6 10
10 23 10 39 0 67 12 67 27 0 12 -8 14 -37 8 -21 -4 -85 -9 -143 -10 -58 -2
-158 -10 -223 -19 -65 -9 -145 -16 -177 -16 -32 0 -62 -4 -65 -10 -7 -12 -75
-13 -75 -2 0 17 79 44 129 46 56 1 67 14 30 33 -24 13 -24 13 8 13 41 0 123
22 123 32 0 4 -42 8 -92 8 -64 0 -88 3 -78 10 8 5 39 10 68 10 30 0 52 4 52
11 0 18 -410 -2 -435 -22 -6 -4 -71 -9 -145 -10 -107 -2 -135 0 -135 11 0 8
21 18 53 25 29 7 60 20 70 29 12 10 36 16 64 16 30 0 64 10 104 30 32 16 70
30 84 30 14 0 35 7 46 15 22 15 179 49 274 59 30 3 60 12 65 19 6 9 42 17 95
21 47 4 108 12 135 17 28 6 213 10 413 11 199 1 362 5 362 10 0 12 48 10 55
-2 4 -6 1 -18 -6 -26 -22 -27 -1 -27 26 0 26 26 28 26 91 15 49 -8 68 -8 79 1
8 6 23 9 33 6 13 -4 22 -1 26 9 3 8 12 15 21 15 8 0 15 5 15 11 0 19 45 5 48
-16 5 -30 32 -85 42 -85 10 0 58 61 90 115 59 101 85 137 88 122 2 -9 -3 -28
-11 -44z m-447 -2701 c0 -15 -106 -59 -117 -49 -5 6 4 10 45 23 7 2 11 8 8 13
-4 5 0 12 6 14 21 9 58 8 58 -1z"/>
<path d="M3346 3535 c-20 -30 -21 -46 -2 -39 17 7 38 52 27 59 -5 2 -16 -6
-25 -20z"/>
<path d="M3430 3515 c-7 -8 -21 -15 -31 -15 -13 0 -19 -7 -19 -24 0 -13 -8
-34 -18 -47 -10 -13 -22 -33 -27 -44 -7 -17 -10 -14 -14 19 -3 22 -12 42 -20
44 -9 3 -12 0 -9 -10 3 -7 0 -22 -7 -32 -8 -10 -11 -24 -9 -31 3 -7 1 -23 -6
-34 -7 -13 -7 -21 -1 -21 6 0 17 12 25 28 13 23 15 24 15 7 1 -36 -30 -109
-65 -154 -19 -24 -34 -55 -34 -68 0 -12 -4 -23 -10 -23 -5 0 -10 -8 -10 -19 0
-25 -66 -165 -85 -181 -18 -15 -55 -83 -55 -100 0 -6 -7 -18 -15 -26 -8 -9
-15 -25 -15 -36 0 -11 -8 -22 -19 -25 -11 -3 -21 -17 -24 -32 -8 -38 -57 -144
-73 -156 -7 -5 -17 -26 -21 -45 -6 -24 -16 -36 -29 -38 -15 -2 -21 -10 -21
-31 0 -16 -14 -52 -31 -80 -18 -28 -32 -60 -32 -72 0 -11 -10 -33 -22 -50 -19
-26 -20 -31 -8 -39 18 -12 94 -3 135 15 17 7 50 19 75 25 25 7 63 20 85 30 22
10 52 22 68 25 15 4 30 11 33 16 3 5 13 9 23 9 18 0 136 62 227 118 28 18 58
32 66 32 8 0 34 20 59 45 24 25 56 52 70 60 30 16 99 82 183 173 47 52 57 69
53 90 -3 17 2 36 13 53 31 43 57 120 69 204 21 140 21 143 2 167 -10 13 -22
34 -26 48 -9 30 -108 124 -151 145 -17 8 -72 26 -122 39 -50 13 -101 31 -114
40 -28 20 -42 20 -58 1z"/>
<path d="M3223 3427 c-24 -26 -37 -63 -26 -70 5 -3 23 12 40 33 26 30 30 40
19 49 -9 8 -18 5 -33 -12z"/>
<path d="M3217 3256 c-10 -22 -16 -41 -13 -43 7 -8 37 49 33 65 -2 12 -9 4
-20 -22z"/>
<path d="M4481 3143 c-22 -89 -19 -245 3 -187 9 23 20 224 13 224 -3 0 -10
-17 -16 -37z"/>
<path d="M3148 3088 c-13 -18 -30 -48 -37 -65 -8 -18 -17 -33 -22 -33 -5 0
-17 -17 -27 -37 -22 -48 -44 -73 -50 -55 -4 14 -32 16 -32 2 0 -5 6 -10 13
-10 8 0 19 -12 26 -27 10 -22 14 -24 21 -12 5 7 7 22 4 33 -4 10 -2 16 3 13
14 -9 53 30 53 51 0 10 11 34 26 55 22 34 58 117 50 117 -2 0 -15 -15 -28 -32z"/>
<path d="M3046 3085 c-3 -8 -1 -15 4 -15 6 0 10 7 10 15 0 8 -2 15 -4 15 -2 0
-6 -7 -10 -15z"/>
<path d="M2965 2940 c-8 -16 -15 -32 -15 -37 0 -10 25 27 33 50 10 27 -1 20
-18 -13z"/>
<path d="M2896 2914 c-5 -14 -4 -15 9 -4 17 14 19 20 6 20 -5 0 -12 -7 -15
-16z"/>
<path d="M4420 2840 c0 -5 5 -10 11 -10 5 0 7 5 4 10 -3 6 -8 10 -11 10 -2 0
-4 -4 -4 -10z"/>
<path d="M4406 2779 c-9 -46 -7 -79 4 -79 6 0 10 5 10 10 0 6 7 10 16 10 10 0
14 6 11 15 -4 8 -2 17 2 19 5 3 6 17 3 31 -7 37 -38 33 -46 -6z"/>
<path d="M2252 2677 c-7 -18 -12 -37 -12 -42 0 -15 26 28 33 53 8 34 -8 26
-21 -11z"/>
<path d="M4321 2647 c-22 -37 -27 -67 -11 -67 6 0 10 -4 10 -9 0 -12 -115
-131 -127 -131 -4 0 -15 -23 -24 -50 -19 -62 -10 -64 20 -5 19 37 26 44 37 34
26 -21 45 0 94 107 54 115 57 126 36 143 -11 9 -18 5 -35 -22z"/>
<path d="M2846 2565 c-25 -52 -8 -64 20 -15 28 49 28 50 10 50 -7 0 -21 -16
-30 -35z"/>
<path d="M4405 2589 c-4 -6 -5 -12 -2 -15 2 -3 7 2 10 11 7 17 1 20 -8 4z"/>
<path d="M2187 2563 c-10 -19 -18 -67 -9 -58 10 11 25 65 18 65 -3 0 -7 -3 -9
-7z"/>
<path d="M4380 2540 c-6 -11 -8 -20 -6 -20 3 0 10 9 16 20 6 11 8 20 6 20 -3
0 -10 -9 -16 -20z"/>
<path d="M2666 2359 c-42 -43 -42 -68 0 -28 26 24 48 58 42 64 -2 2 -20 -15
-42 -36z"/>
<path d="M2722 2328 c6 -18 28 -21 28 -4 0 9 -7 16 -16 16 -9 0 -14 -5 -12
-12z"/>
<path d="M4200 2314 c-13 -13 -20 -24 -14 -24 12 0 50 38 43 44 -2 2 -15 -7
-29 -20z"/>
<path d="M2700 2135 c0 -8 4 -15 9 -15 5 0 11 7 15 15 3 9 0 15 -9 15 -8 0
-15 -7 -15 -15z"/>
<path d="M3970 2119 c-19 -15 -40 -27 -46 -25 -6 3 -28 -9 -48 -26 -28 -23
-34 -33 -26 -43 15 -19 33 -10 54 25 9 17 23 30 29 30 16 0 84 56 77 63 -3 3
-21 -8 -40 -24z"/>
<path d="M3744 1975 c-38 -25 -74 -43 -81 -41 -7 3 -10 -1 -6 -9 3 -8 10 -12
17 -8 6 4 16 8 21 8 23 2 52 20 92 57 56 50 41 48 -43 -7z"/>
<path d="M3557 1904 c-10 -10 -9 -44 2 -44 13 0 23 32 13 42 -5 5 -11 5 -15 2z"/>
<path d="M3371 1886 c-6 -8 -32 -19 -56 -25 -25 -6 -45 -16 -45 -21 0 -6 -12
-15 -27 -21 -16 -6 -22 -13 -16 -16 7 -3 37 7 67 21 30 14 66 30 81 36 25 10
32 24 16 34 -5 3 -14 0 -20 -8z"/>
<path d="M3171 1821 c-27 -27 -27 -43 0 -39 29 4 48 33 32 49 -8 8 -16 6 -32
-10z"/>
<path d="M3395 1800 c-3 -5 -2 -10 4 -10 5 0 13 5 16 10 3 6 2 10 -4 10 -5 0
-13 -4 -16 -10z"/>
<path d="M3034 1765 c-19 -14 -19 -14 3 -15 30 0 54 10 47 21 -8 13 -28 11
-50 -6z"/>
<path d="M2924 1724 c-18 -15 -18 -15 6 -10 15 3 31 -1 42 -11 10 -9 21 -13
25 -9 7 7 -34 45 -48 46 -3 0 -14 -7 -25 -16z"/>
<path d="M2851 1671 c-20 -13 2 -22 38 -15 17 4 28 10 25 15 -7 11 -45 11 -63
0z"/>
<path d="M2552 1615 c-8 -10 -32 -15 -67 -15 -62 0 -73 -14 -20 -24 22 -4 45
-2 62 7 15 8 42 18 58 22 27 7 28 8 10 15 -27 11 -28 11 -43 -5z"/>
<path d="M1110 1560 l-25 -8 28 -1 c15 -1 27 4 27 9 0 6 -1 10 -2 9 -2 -1 -14
-5 -28 -9z"/>
<path d="M2555 1510 c-16 -11 -42 -22 -57 -26 -16 -3 -28 -12 -28 -19 0 -11
12 -9 53 7 58 24 77 36 77 49 0 14 -12 11 -45 -11z"/>
<path d="M1270 1479 c0 -5 5 -7 10 -4 6 3 10 8 10 11 0 2 -4 4 -10 4 -5 0 -10
-5 -10 -11z"/>
<path d="M1100 1430 c-8 -5 -10 -10 -5 -10 6 0 17 5 25 10 8 5 11 10 5 10 -5
0 -17 -5 -25 -10z"/>
<path d="M1160 1420 c0 -5 7 -10 15 -10 8 0 15 5 15 10 0 6 -7 10 -15 10 -8 0
-15 -4 -15 -10z"/>
<path d="M1875 1240 c-3 -5 -1 -10 4 -10 6 0 11 5 11 10 0 6 -2 10 -4 10 -3 0
-8 -4 -11 -10z"/>
</g>
</svg>
